<svg width="304" height="90" viewBox="0 0 304 90" fill="none" xmlns="http://www.w3.org/2000/svg">
<path d="M42.236 52.1397C40.5016 52.7057 39.1166 53.6331 38.7312 54.4883C38.4421 55.1387 38.4421 55.5482 38.8034 58.0534C39.2861 61.4 39.3604 62.3034 39.3604 62.3034L36.9666 64.5165C36.9666 64.5165 35.6567 64.5661 35.1148 64.5165C34.3017 64.3854 31.4685 64.0875 30.2039 63.9911C28.8911 63.8948 28.6261 64.0393 27.8191 65.2558C27.0363 66.4241 26.8797 66.7493 26.6508 67.6285C26.3377 68.869 26.2895 69.7723 26.5063 70.1939C26.7592 70.6757 27.6746 71.4826 29.7703 73.0243C31.9262 74.6261 32.2634 75.0401 32.2634 75.0401V78.8416C32.143 78.9741 31.0229 79.8895 29.7703 80.865C26.9881 83.033 26.8436 83.1655 26.5665 83.7677C26.2775 84.394 26.2775 85.0564 26.5906 86.0681C26.8539 86.9537 27.5135 88.188 28.1004 89.0115H29.404H34.6745H36.8533C37.1438 88.965 37.2376 88.9511 37.2376 88.9511L37.2879 89.0115H37.3098H37.4485H37.5872H37.7259H37.8646H38.0033H38.142H38.2807H39.6677H63.5237H64.0785L64.287 89.0115L64.4946 89.0115L64.6333 89.0115L64.772 89.0115H64.9107H65.1881H65.4655H65.6042H65.7303L65.7823 88.9511C65.7823 88.9511 65.8568 88.9634 66.1473 89.0115L68.7943 89.0115L71.5682 89.0115L73.7874 89.0115H74.7981C75.3513 88.2387 75.9631 87.0697 76.2608 86.1765C76.7426 84.7433 76.586 83.7075 75.7549 82.9487C75.5743 82.7801 74.3337 81.8045 72.9968 80.7687C71.672 79.7449 70.0279 78.6985 70.0279 78.6985V75.0401C70.0279 75.0401 70.3832 75.0959 73.2136 72.9761C76.586 70.4589 76.7185 70.2782 76.3933 68.4234C76.1765 67.1226 75.9236 66.5204 75.1046 65.2678C74.3097 64.0514 74.0206 63.8948 72.6957 63.9911C71.419 64.0875 69.215 64.3765 68.4321 64.5572C68.1069 64.6295 66.3846 65.0133 66.3846 65.0133L63.4788 62.3485C63.4788 62.3485 63.4819 62.2929 64.036 58.4388C64.2287 57.0296 64.3973 55.6806 64.3973 55.4277C64.3853 54.3799 63.6265 53.4886 62.145 52.7539C60.3384 51.8747 59.0617 51.682 58.0741 52.1397C57.4478 52.4167 57.0383 52.8984 54.762 55.9818L52.8951 58.5231H51.4498H50.0045L48.1377 55.9697C45.9456 52.9828 45.4759 52.4287 44.8255 52.1397C44.2113 51.8506 43.1152 51.8506 42.236 52.1397ZM54.497 60.6429C60.5913 61.8232 65.5535 66.3036 67.324 72.2053C67.8419 73.9155 67.9503 74.7105 67.9503 76.9627C67.9503 79.9858 67.589 81.6118 66.3846 84.129C65.4813 86.0012 64.2833 87.6423 62.8437 89.0115H62.969H39.8064H39.9451H40.058C40.058 89.0115 35.6414 83.1804 35.0697 79.6124C34.8288 78.119 34.8409 75.5174 35.0818 74.1323C35.9971 68.8931 39.5381 64.232 44.3317 61.9798C45.9456 61.2089 47.8847 60.6669 49.8238 60.414C50.6549 60.3177 53.5094 60.4501 54.497 60.6429Z" fill="#282828"/>
<path d="M48.9805 62.2086C43.1271 63.1962 38.3576 67.6044 36.8882 73.4097C36.1535 76.3123 36.4666 80.022 37.7072 82.8523C38.8093 85.3966 40.5208 87.4855 42.604 89.0115H51.4353H60.2665C62.995 87.0109 65.0269 84.1036 65.8906 80.7807C66.4807 78.5164 66.553 76.6978 66.1315 74.313C65.0475 68.1343 60.0732 63.2083 53.8825 62.2086C52.5577 61.9918 50.2331 61.9918 48.9805 62.2086ZM52.9069 69.8687C54.1355 70.0855 55.5446 70.8563 56.5202 71.8319C57.821 73.1447 58.375 74.313 58.6279 76.228C59.0495 79.4197 57.0501 82.5994 53.8584 83.8279C52.8708 84.2013 50.8113 84.2976 49.7032 84.0206C48.3783 83.6834 47.4509 83.1534 46.379 82.0815C45.6443 81.3589 45.295 80.8891 44.9578 80.2147C44.1629 78.5767 43.9702 76.8905 44.4038 75.2284C44.741 73.8915 45.295 72.952 46.3308 71.8921C47.74 70.4589 49.3178 69.7844 51.3412 69.7483C51.8109 69.7483 52.5095 69.7964 52.9069 69.8687Z" fill="#282828"/>
<path d="M68.8534 31.6655C67.8623 32.5281 67.2044 33.5326 67.1891 34.2086C67.1802 34.7215 67.2952 34.9934 68.2388 36.5554C69.4993 38.6421 69.8023 39.2211 69.8023 39.2211L68.8368 41.3623C68.8368 41.3623 67.9821 41.7628 67.6088 41.882C67.0328 42.0231 65.0703 42.6204 64.2046 42.9114C63.307 43.2158 63.1719 43.3861 62.9785 44.4203C62.7877 45.4157 62.7752 45.6756 62.8705 46.3236C63.0115 47.2352 63.2333 47.8485 63.4955 48.0675C63.7986 48.3164 64.6324 48.5954 66.4553 49.0309C68.3351 49.4895 68.6751 49.6697 68.6751 49.6697L69.7433 52.1938C69.7006 52.3156 69.215 53.2377 68.6585 54.237C67.4227 56.4573 67.3641 56.5858 67.3496 57.0634C67.3339 57.5604 67.5201 58.0002 68.012 58.5841C68.6512 59.3602 70.1129 60.4107 70.5922 60.453C70.9862 60.4937 72.0318 59.9381 74.3511 58.4757C75.5981 57.6839 75.8825 57.5104 75.8825 57.5104L78.1415 58.676C78.1415 58.676 78.4674 59.9779 78.8499 61.6071C79.3526 63.7517 79.4224 63.939 79.8484 64.2113C80.5471 64.6606 81.4225 64.771 82.8119 64.5602C84.5772 64.3034 84.6574 64.2035 85.3693 61.4129C85.6507 60.2754 85.922 59.1139 85.971 58.8292L86.0494 58.3245L87.1436 57.8615L88.2344 57.3904L88.591 57.6544C88.784 57.799 89.6533 58.3175 90.5123 58.812C91.3714 59.3066 92.2077 59.7918 92.3759 59.8999C92.8474 60.1906 93.5305 60.2693 93.9617 60.0868C94.4809 59.8671 95.5951 58.9618 96.0874 58.3669C96.5922 57.7572 96.8753 57.0245 96.7826 56.5828C96.7333 56.3774 96.3556 55.7074 95.6698 54.621C95.0972 53.7129 94.455 52.5514 94.455 52.5514L94.0673 51.8302L94.8115 49.4998C94.8115 49.4998 95.0509 49.4422 96.4955 49.0949C98.3972 48.6484 99.355 48.375 99.9381 48.1283C100.505 47.8883 100.518 47.8735 100.68 47.456C100.909 46.8404 101.048 45.5654 100.981 44.7169C100.897 43.63 100.502 42.9862 99.7381 42.7156C99.5709 42.6543 98.4741 42.3547 97.2965 42.0421C96.1303 41.7342 94.746 41.5008 94.746 41.5008L93.718 39.0716C93.718 39.0716 93.9694 39.0089 95.2506 36.8071C96.7797 34.1893 96.8167 34.0322 96.0799 32.8919C95.5706 32.0891 95.2337 31.7602 94.3386 31.1583C93.4697 30.5737 93.234 30.5508 92.3825 30.9866C91.5629 31.4089 90.1826 32.2194 89.7142 32.559C89.5188 32.6983 88.4846 33.4365 88.4846 33.4365L85.8089 32.4826C85.8089 32.4826 85.7953 32.4448 85.0797 29.7302C84.8115 28.7404 84.5443 27.7974 84.4732 27.6295C84.1708 26.9371 83.4172 26.5583 82.2283 26.4862C80.7833 26.4094 79.8825 26.6398 79.3562 27.2208C79.0187 27.5805 78.8825 28.0153 78.2394 30.7014L77.7155 32.9127L76.7571 33.3183L75.7986 33.7239L73.8432 32.5524C71.5502 31.1843 71.0831 30.9482 70.5705 30.9388C70.082 30.9193 69.3552 31.2269 68.8534 31.6655ZM79.3734 33.8706C83.7464 32.9441 88.296 34.5264 91.1284 37.9482C91.9525 38.9384 92.2477 39.4358 92.8806 40.9313C93.73 42.9385 93.9473 44.1196 93.856 46.129C93.6682 49.9802 91.7568 53.3633 88.5244 55.561C87.6392 56.1619 85.5899 57.0386 84.6096 57.2366C82.4015 57.6713 80.8332 57.6372 78.7921 57.0866C75.9329 56.3164 73.3926 54.4306 71.8208 51.9181C71.2414 50.9941 70.5184 49.2633 70.2889 48.276C69.4237 44.5404 70.4622 40.4518 73.0081 37.6111C73.8617 36.6463 74.9953 35.7423 76.2102 35.0301C76.7342 34.733 78.6643 34.0199 79.3734 33.8706Z" fill="#282828"/>
<path d="M76.5425 36.225C72.8507 38.3668 70.7528 42.5432 71.2298 46.8301C71.4683 48.9736 72.6162 51.3974 74.1664 52.9942C78.0404 57.0192 84.2252 57.4366 88.6244 53.9737C91.4625 51.7253 92.9968 48.0935 92.6193 44.4919C92.4447 42.8155 92.034 41.5703 91.1478 40.0677C88.8572 36.1725 84.2638 34.1031 79.843 34.9892C78.8962 35.177 77.3311 35.7629 76.5425 36.225ZM81.121 40.4031C82.0029 40.2396 83.1464 40.4045 84.0497 40.8167C85.2571 41.3745 85.9253 42.023 86.5793 43.2512C87.6693 45.2983 87.1263 47.9474 85.2876 49.5808C84.7169 50.0817 83.3546 50.6659 82.5385 50.7583C81.5613 50.8648 80.803 50.741 79.8105 50.2881C79.1333 49.9858 78.7795 49.7569 78.382 49.3869C77.4331 48.4822 76.8774 47.3932 76.7495 46.1625C76.6389 45.1756 76.7746 44.4021 77.2043 43.4259C77.7911 42.1038 78.6831 41.251 80.0363 40.7165C80.3526 40.5981 80.8351 40.4545 81.121 40.4031Z" fill="#282828"/>
<path fill-rule="evenodd" clip-rule="evenodd" d="M128.989 65.2941C128.989 73.6686 127.393 81.6702 124.488 89.0115H122.47H119.558H117.008C120.25 81.7405 122.054 73.6953 122.054 65.2941C122.054 33.5814 96.346 8.2892 64.6333 8.2892C32.9206 8.2892 7.2123 33.5814 7.2123 65.2941C7.2123 73.6953 9.01652 81.7405 12.2586 89.0115H9.43147H6.65751H4.50075C1.59612 81.6702 0 73.6686 0 65.2941C0 29.6747 28.8752 0.7995 64.4946 0.7995C100.114 0.7995 128.989 29.6747 128.989 65.2941Z" fill="#282828"/>
<path fill-rule="evenodd" clip-rule="evenodd" d="M122.332 65.6287C122.332 73.9533 120.564 81.8655 117.382 89.0115H116.806H116.229H115.397H114.287H113.178H112.068H110.689C114.177 81.9403 116.128 73.9674 116.128 65.6287C116.128 37.2978 93.1284 14.7028 64.7574 14.7028C36.3865 14.7028 13.3873 37.2978 13.3873 65.6287C13.3873 73.9674 15.3433 81.9403 18.8379 89.0115H17.476H16.3664H15.2569H14.1473H13.0377H11.8843C8.70291 81.8655 6.93497 73.9533 6.93497 65.6287C6.93497 33.8078 32.7674 8.01181 64.6334 8.01181C96.4993 8.01181 122.332 33.8078 122.332 65.6287Z" fill="#4340D3"/>
<path d="M274.431 73.1584C274.431 76.6654 273.767 79.6489 272.437 82.1091C271.118 84.5692 269.318 86.4483 267.035 87.7464C264.764 89.034 262.209 89.6778 259.372 89.6778C256.514 89.6778 253.95 89.0288 251.678 87.7307C249.406 86.4326 247.611 84.5535 246.292 82.0934C244.973 79.6332 244.313 76.6549 244.313 73.1584C244.313 69.6514 244.973 66.6679 246.292 64.2078C247.611 61.7477 249.406 59.8738 251.678 58.5861C253.95 57.288 256.514 56.639 259.372 56.639C262.209 56.639 264.764 57.288 267.035 58.5861C269.318 59.8738 271.118 61.7477 272.437 64.2078C273.767 66.6679 274.431 69.6514 274.431 73.1584ZM267.538 73.1584C267.538 70.8867 267.198 68.971 266.517 67.4112C265.847 65.8513 264.9 64.6684 263.675 63.8623C262.45 63.0562 261.016 62.6532 259.372 62.6532C257.729 62.6532 256.295 63.0562 255.07 63.8623C253.845 64.6684 252.892 65.8513 252.212 67.4112C251.542 68.971 251.207 70.8867 251.207 73.1584C251.207 75.4301 251.542 77.3458 252.212 78.9057C252.892 80.4655 253.845 81.6484 255.07 82.4545C256.295 83.2606 257.729 83.6636 259.372 83.6636C261.016 83.6636 262.45 83.2606 263.675 82.4545C264.9 81.6484 265.847 80.4655 266.517 78.9057C267.198 77.3458 267.538 75.4301 267.538 73.1584Z" fill="#4340D3"/>
<path d="M215.585 62.6846V57.0786H241.997V62.6846H232.151V89.2381H225.431V62.6846H215.585Z" fill="#4340D3"/>
<path d="M187.575 89.2381V57.0786H200.451C202.817 57.0786 204.79 57.4293 206.371 58.1307C207.952 58.8321 209.14 59.8057 209.936 61.0515C210.731 62.2868 211.129 63.7105 211.129 65.3227C211.129 66.5789 210.878 67.6833 210.375 68.636C209.873 69.5781 209.182 70.3528 208.303 70.96C207.434 71.5567 206.439 71.9807 205.319 72.2319V72.546C206.544 72.5983 207.69 72.9438 208.758 73.5824C209.836 74.221 210.71 75.116 211.38 76.2676C212.05 77.4086 212.385 78.7696 212.385 80.3503C212.385 82.0567 211.961 83.5799 211.114 84.9199C210.276 86.2494 209.035 87.3015 207.392 88.0761C205.748 88.8508 203.723 89.2381 201.315 89.2381H187.575ZM194.374 83.6793H199.917C201.812 83.6793 203.194 83.3182 204.063 82.5958C204.932 81.863 205.366 80.8894 205.366 79.6751C205.366 78.7853 205.152 78.0001 204.722 77.3197C204.293 76.6392 203.681 76.1053 202.885 75.718C202.1 75.3306 201.163 75.137 200.074 75.137H194.374V83.6793ZM194.374 70.536H199.415C200.347 70.536 201.174 70.3738 201.896 70.0492C202.629 69.7142 203.204 69.2431 203.623 68.636C204.052 68.0288 204.267 67.3012 204.267 66.4533C204.267 65.2912 203.854 64.3543 203.027 63.6424C202.21 62.9306 201.048 62.5746 199.54 62.5746H194.374V70.536Z" fill="#4340D3"/>
<path d="M160.04 89.2381H152.754L163.856 57.0786H172.618L183.704 89.2381H176.418L168.362 64.4276H168.111L160.04 89.2381ZM164.152 76.5973H172.314L174.114 81.8683L162.426 81.9049L164.152 76.5973Z" fill="#4340D3"/>
<path d="M304 14.9059H297.122C296.997 14.0161 296.74 13.2257 296.353 12.5348C295.965 11.8334 295.468 11.2367 294.861 10.7447C294.254 10.2526 293.552 9.87577 292.757 9.61405C291.972 9.35234 291.118 9.22148 290.197 9.22148C288.533 9.22148 287.083 9.63499 285.847 10.462C284.612 11.2786 283.654 12.472 282.974 14.0423C282.293 15.6021 281.953 17.4969 281.953 19.7267C281.953 22.0193 282.293 23.9455 282.974 25.5054C283.665 27.0652 284.628 28.2429 285.863 29.0385C287.098 29.8341 288.527 30.2319 290.15 30.2319C291.061 30.2319 291.904 30.1116 292.678 29.8708C293.463 29.63 294.16 29.2793 294.767 28.8187C295.374 28.3476 295.876 27.7771 296.274 27.1071C296.682 26.4371 296.965 25.6729 297.122 24.8144L304 24.8458C303.822 26.3219 303.377 27.7456 302.665 29.117C301.964 30.478 301.016 31.6975 299.823 32.7758C298.64 33.8436 297.227 34.6916 295.583 35.3197C293.95 35.9373 292.102 36.2461 290.04 36.2461C287.172 36.2461 284.607 35.5971 282.346 34.299C280.095 33.0009 278.315 31.1218 277.007 28.6617C275.709 26.2015 275.06 23.2232 275.06 19.7267C275.06 16.2197 275.719 13.2362 277.038 10.7761C278.357 8.31595 280.147 6.44207 282.409 5.15443C284.67 3.85633 287.214 3.20728 290.04 3.20728C291.904 3.20728 293.631 3.46899 295.222 3.99242C296.824 4.51585 298.242 5.28006 299.478 6.28504C300.713 7.27956 301.718 8.49915 302.493 9.94381C303.278 11.3885 303.78 13.0425 304 14.9059Z" fill="#282828"/>
<path d="M248.549 35.8065V3.647H270.219V9.25293H255.349V16.9159H269.104V22.5219H255.349V30.2006H270.282V35.8065H248.549Z" fill="#282828"/>
<path d="M215.557 35.8065V3.647H222.357V16.9159H236.16V3.647H242.943V35.8065H236.16V22.5219H222.357V35.8065H215.557Z" fill="#282828"/>
<path d="M198.108 36.2461C195.763 36.2461 193.674 35.8431 191.842 35.037C190.021 34.2205 188.581 33.1003 187.524 31.6766C186.477 30.2424 185.938 28.5884 185.906 26.7145H192.753C192.795 27.4996 193.051 28.1906 193.522 28.7873C194.004 29.3735 194.642 29.8289 195.438 30.1534C196.234 30.478 197.129 30.6402 198.123 30.6402C199.16 30.6402 200.076 30.457 200.871 30.0906C201.667 29.7242 202.29 29.2165 202.74 28.5674C203.19 27.9184 203.415 27.1699 203.415 26.3219C203.415 25.4635 203.174 24.7045 202.693 24.045C202.222 23.375 201.541 22.8516 200.651 22.4747C199.772 22.0978 198.725 21.9094 197.511 21.9094H194.512V16.9159H197.511C198.537 16.9159 199.442 16.7379 200.227 16.382C201.023 16.0261 201.641 15.534 202.08 14.9059C202.52 14.2673 202.74 13.5241 202.74 12.6761C202.74 11.87 202.546 11.1634 202.159 10.5562C201.782 9.93858 201.248 9.45703 200.557 9.11156C199.877 8.7661 199.081 8.59337 198.17 8.59337C197.249 8.59337 196.406 8.76086 195.642 9.09586C194.878 9.42038 194.266 9.88624 193.805 10.4934C193.344 11.1006 193.098 11.8125 193.067 12.629H186.55C186.582 10.7761 187.11 9.14297 188.136 7.72971C189.162 6.31645 190.544 5.21201 192.282 4.4164C194.03 3.61032 196.003 3.20728 198.202 3.20728C200.421 3.20728 202.363 3.61032 204.028 4.4164C205.692 5.22248 206.985 6.31121 207.906 7.6826C208.838 9.04351 209.299 10.5719 209.288 12.2678C209.299 14.0684 208.738 15.5707 207.608 16.7746C206.488 17.9785 205.027 18.7427 203.227 19.0672V19.3184C205.593 19.622 207.393 20.4438 208.629 21.7838C209.874 23.1133 210.492 24.7778 210.481 26.7773C210.492 28.6093 209.963 30.2372 208.895 31.6609C207.838 33.0846 206.378 34.2048 204.514 35.0213C202.651 35.8379 200.515 36.2461 198.108 36.2461Z" fill="#282828"/>
<path d="M153.892 3.647H160.676V23.8723H160.943L174.84 3.647H180.791V35.8065H173.992V15.5655H173.756L159.781 35.8065H153.892V3.647Z" fill="#282828"/>
<path d="M125.089 35.8065V3.647H146.429V9.25293H131.889V15.5341H137.118C139.661 15.5341 141.855 15.9476 143.697 16.7746C145.55 17.5912 146.979 18.7479 147.984 20.245C148.989 21.742 149.491 23.5059 149.491 25.5368C149.491 27.5573 148.989 29.3422 147.984 30.8915C146.979 32.4304 145.55 33.6343 143.697 34.5032C141.855 35.3721 139.661 35.8065 137.118 35.8065H125.089ZM131.889 30.3419H137.118C138.332 30.3419 139.358 30.1221 140.195 29.6824C141.033 29.2322 141.666 28.6408 142.095 27.908C142.535 27.1647 142.755 26.3534 142.755 25.474C142.755 24.1968 142.268 23.1186 141.295 22.2392C140.331 21.3494 138.939 20.9045 137.118 20.9045H131.889V30.3419Z" fill="#282828"/>
</svg>
